<?xml version="1.0" encoding="utf-8"?>
<!-- Generator: Adobe Illustrator 19.0.0, SVG Export Plug-In . SVG Version: 6.00 Build 0)  -->
<svg version="1.1" id="Layer_1" xmlns="http://www.w3.org/2000/svg" xmlns:xlink="http://www.w3.org/1999/xlink" x="0px" y="0px"
	 viewBox="0 0 500 500" style="enable-background:new 0 0 500 500;" xml:space="preserve">
<style type="text/css">
	.st0{fill:#005BAA;}
	.st1{fill:#F58220;}
</style>
<g id="XMLID_1_">
	<path id="XMLID_2_" class="st0" d="M87,171.8h136.8v13H119.5c-7.1,0-13,5.8-13,13v104.3c0,7.1,5.8,13,13,13h104.3v13.1H87
		c-10.8,0-19.5-8.8-19.5-19.5V191.3C67.5,180.5,76.2,171.8,87,171.8z"/>
	<path id="XMLID_3_" class="st0" d="M302.1,184.8c-7.1,0-13,5.8-13,13v104.3c0,7.1,5.8,13,13,13s13-5.8,13-13V197.8
		C315.2,190.6,309.4,184.8,302.1,184.8z M354.3,197.7v0.2v19.5v6.7v9.4v8.1v16.7v8.2v3v13v3.6v3v13c0,0.7,0,1.3,0.1,1.9v0.1v0.1v0.1
		v0.1v0.1v0.1v0.1v0.1v0.1v0.1v0.1v0.1v0.1v0.1v0.1v0.1c0,0.2,0.1,0.4,0.1,0.6l0.1,0.4l0.1,0.4l0.1,0.2c0,0.1,0.1,0.2,0.1,0.4
		l0.1,0.2l0.1,0.2l0.1,0.2l0.1,0.1l0.1,0.2c0.4,0.6,0.7,1.2,1.2,1.8c0.1,0.1,0.2,0.2,0.2,0.4c0.6,0.7,1.3,1.3,2,1.9
		c0.2,0.2,0.6,0.4,0.8,0.6l0.2,0.1c1,0.5,1.8,1,2.7,1.2c0.1,0,0.4,0.1,0.5,0.1c0.4,0.1,3.5,0.4,3.5,0.4
		c14.6-1.7,26.1-14.1,26.1-29.2c0-15.1-11.4-27.5-26.1-29.2v-13.6c14.6-1.5,26.1-14.1,26.1-29.2c0-13.6-9.3-25-21.8-28.3
		c-1-0.4-2-0.6-3.1-0.7c-0.4-0.1-0.8-0.1-1.2-0.1C360.2,184.8,354.4,190.6,354.3,197.7z M404.3,245.9c16.4,5.8,28.2,21.6,28.2,39.9
		c0,23.3-18.8,42.3-42,42.4h-0.2h-22.9h-21.1h-5h-39.1H237v-13c7.1,0,13-5.8,13-13V197.9c0-7.1-5.8-13-13-13v-13h65.1h52.2h4.6h8.3
		h19.2c0.2,0,0.5,0,0.8,0c9.2,0.1,17.5,3.3,24.2,8.7c8.3,6.4,14.4,16.6,14.5,30.2v0.1v0.1c0,2.3-0.2,4.4-0.5,6.3
		C423.4,229.8,415.4,240.4,404.3,245.9z"/>
	<path id="XMLID_7_" class="st1" d="M126.1,250.1c0-28.8,23.3-52.2,52.2-52.2c28.8,0,52.2,23.3,52.2,52.2
		c0,28.8-23.3,52.2-52.2,52.2C149.6,302.2,126.1,278.9,126.1,250.1z M183.1,226.1c8.1-1,15.6-4.2,21.7-9.1
		c-6.1-4.9-13.6-8.1-21.7-9.1V226.1z M151.7,217.1c6.1,4.9,13.6,8.1,21.7,9.1v-18.2C165.3,208.9,157.8,212.1,151.7,217.1z
		 M173.4,235.9c-10.8-1-20.7-5.4-28.6-11.9c-4.6,6-7.7,13.2-8.7,21.1h37.2v-9.2H173.4z M211.7,224c-7.9,6.5-17.7,11-28.6,11.9v9.2
		h37.2C219.5,237.2,216.4,229.9,211.7,224z M173.4,273.9c-8.2,1-15.6,4.2-21.7,9.1c6.1,4.9,13.6,8.1,21.7,9.1V273.9z M204.9,283
		c-6.1-4.9-13.6-8.1-21.7-9.1v18.2C191.3,291.1,198.9,287.9,204.9,283z M183.1,264.1c10.8,1,20.7,5.4,28.6,11.9
		c4.6-6,7.7-13.2,8.6-21.1h-37.2V264.1z M144.8,276c7.9-6.5,17.7-11,28.6-11.9v-9.2h-37.2C137.2,262.8,140.1,270.1,144.8,276z"/>
</g>
</svg>
